<svg width="65" height="56" viewBox="0 0 65 56" fill="none" xmlns="http://www.w3.org/2000/svg">
<g clip-path="url(#clip0_3_272)">
<path d="M32.5086 36.7677C35.5534 36.7677 38.0216 30.4388 38.0216 22.6316C38.0216 14.8244 35.5534 8.49545 32.5086 8.49545C29.4639 8.49545 26.9956 14.8244 26.9956 22.6316C26.9956 30.4388 29.4639 36.7677 32.5086 36.7677Z" fill="white"/>
<path d="M37.2756 31.6086H27.9448C26.5955 31.6086 25.5017 32.7024 25.5017 34.0516V34.4431C25.5017 35.7924 26.5955 36.8862 27.9448 36.8862H37.2756C38.6248 36.8862 39.7186 35.7924 39.7186 34.4431V34.0516C39.7186 32.7024 38.6248 31.6086 37.2756 31.6086Z" fill="white"/>
<path d="M38.5506 10.8043C37.2822 8.76038 35.5445 7.2079 34.0312 5.40565C33.5929 4.88397 32.8982 4.14795 32.6495 3.3053C32.6071 3.47234 32.5524 3.63598 32.4857 3.79487C32.3543 4.0783 32.1865 4.34334 31.9865 4.58329C31.7541 4.86405 31.5069 5.1271 31.2712 5.40565C29.7585 7.2079 28.0201 8.76038 26.7517 10.8043C23.5859 15.9056 23.0288 22.9596 26.3123 28.166C27.456 29.9768 29.0631 31.8956 28.6034 34.0465L31.3531 34.1793C31.3615 34.2251 31.37 34.2719 31.3785 34.3173C32.7126 34.2531 35.3649 34.1107 36.6989 34.0465C36.2392 31.8956 37.8482 29.9768 38.99 28.166C42.2728 22.9596 41.7157 15.9056 38.5506 10.8043Z" fill="white"/>
<path d="M23.8333 37.7362C23.1997 37.739 22.573 37.6044 21.9964 37.3418C20.3575 36.5807 19.1308 34.8504 18.7158 32.7135C18.4893 31.2418 18.4572 29.7468 18.6202 28.2667L18.6604 27.6539C18.8106 25.2245 18.7619 22.1889 17.0345 20.2645C16.4121 19.6329 15.7173 19.0769 14.9644 18.6084C14.3746 18.2201 13.8062 17.8001 13.2618 17.3503C11.8461 16.1923 10.8657 14.5877 10.4815 12.7995C10.2837 11.8418 10.3327 10.8495 10.6239 9.91593C10.9151 8.98238 11.4389 8.13822 12.1461 7.46282C13.4212 6.31026 15.0821 5.95977 16.5479 5.65061L16.7394 5.61039C17.9252 5.35878 19.2482 5.0201 19.9443 4.15679C20.0884 3.9592 20.1874 3.73241 20.2343 3.49241C20.2812 3.25242 20.2749 3.00505 20.2159 2.76775C20.1991 2.66436 20.1573 2.56664 20.0941 2.48306C20.031 2.39948 19.9484 2.33257 19.8536 2.28813C19.5709 2.17 19.3451 1.94684 19.2236 1.6656C19.1022 1.38436 19.0945 1.06697 19.2023 0.780201C19.3101 0.493435 19.5249 0.25965 19.8015 0.128034C20.0781 -0.0035821 20.395 -0.0227657 20.6855 0.0745141C21.1315 0.249516 21.5289 0.528943 21.8445 0.889341C22.1601 1.24974 22.3846 1.68059 22.4992 2.14572C22.6562 2.7446 22.6735 3.37155 22.5497 3.97816C22.4259 4.58478 22.1644 5.15484 21.7853 5.64433C20.6582 7.03928 18.9301 7.56538 17.2301 7.92583L17.036 7.96678C15.7495 8.23795 14.5343 8.49436 13.7333 9.21858C13.3291 9.62432 13.0328 10.1246 12.8711 10.674C12.7094 11.2234 12.6876 11.8045 12.8076 12.3645C13.0931 13.6209 13.7953 14.7438 14.7999 15.5506C15.2798 15.9447 15.7804 16.3128 16.2996 16.6534C17.2113 17.2255 18.0496 17.9069 18.7958 18.6825C21.1098 21.2606 21.2009 24.9087 21.0224 27.7985L20.981 28.4257C20.836 29.7019 20.8554 30.9914 21.0386 32.2627C21.3098 33.6569 22.0403 34.7533 22.994 35.1957C23.2538 35.3083 23.5335 35.3683 23.8167 35.372C24.0999 35.3758 24.3811 35.3232 24.6438 35.2175C24.8174 35.1553 24.9767 35.0589 25.1124 34.9342C25.2482 34.8094 25.3575 34.6587 25.4341 34.491C25.5512 34.2031 25.7769 33.9727 26.0624 33.8498C26.3479 33.7268 26.6703 33.7211 26.96 33.8339C27.2497 33.9467 27.4833 34.169 27.6105 34.4526C27.7377 34.7363 27.7481 35.0586 27.6396 35.3499C27.4487 35.8209 27.1624 36.2473 26.7989 36.6024C26.4354 36.9574 26.0024 37.2336 25.5271 37.4134C24.9882 37.6279 24.4133 37.7375 23.8333 37.7362Z" fill="white"/>
<path d="M20.8524 42.062C19.9424 42.0645 19.0399 41.8979 18.1909 41.5705C16.7214 40.974 15.4657 39.9487 14.5872 38.6282C13.7088 37.3077 13.2484 35.7533 13.266 34.1675C13.2804 33.3927 13.3294 32.5873 13.3767 31.8063C13.5349 29.2237 13.6984 26.5571 12.6757 24.4147C12.1732 23.3599 11.0431 22.2446 9.76108 22.2785C9.55798 22.2779 9.35774 22.3264 9.17742 22.4199C8.9971 22.5133 8.84205 22.649 8.72549 22.8153C8.09129 23.6528 8.0127 25.1566 8.26062 26.1464C8.66424 27.7554 9.00624 29.6167 8.48199 31.2204C8.31643 31.788 8.00859 32.3039 7.58767 32.7192C7.16675 33.1344 6.64671 33.4352 6.0769 33.593C5.42781 33.74 4.75219 33.7212 4.11228 33.5384C3.47236 33.3556 2.88875 33.0147 2.41521 32.5471C1.68986 31.8158 1.09071 30.9693 0.642105 30.042C0.567566 29.9057 0.520609 29.756 0.503917 29.6015C0.487226 29.4471 0.501124 29.2908 0.544821 29.1417C0.588519 28.9926 0.661157 28.8535 0.758591 28.7325C0.856024 28.6114 0.976345 28.5108 1.11268 28.4362C1.24902 28.3617 1.3987 28.3148 1.55318 28.2981C1.70767 28.2814 1.86393 28.2953 2.01304 28.339C2.16215 28.3827 2.3012 28.4553 2.42224 28.5527C2.54327 28.6502 2.64393 28.7705 2.71847 28.9068C3.05044 29.6037 3.48896 30.2446 4.01823 30.8065C4.20333 31.0014 4.43299 31.1485 4.68748 31.235C4.94196 31.3216 5.21366 31.3451 5.47922 31.3034C5.66546 31.245 5.83309 31.1387 5.96536 30.9952C6.09764 30.8516 6.18991 30.6759 6.23295 30.4855C6.572 29.4473 6.26985 27.9288 5.96511 26.7224C5.5733 25.1584 5.69136 22.9024 6.83875 21.3872C7.16814 20.9376 7.59731 20.5705 8.09253 20.3147C8.58775 20.059 9.13554 19.9216 9.69283 19.9133C12.0378 19.8436 13.9614 21.6141 14.8111 23.3971C16.0953 26.0904 15.9042 29.2046 15.7364 31.9516C15.688 32.7419 15.6419 33.4879 15.6286 34.2114C15.6245 35.3118 15.9468 36.3888 16.5548 37.3061C17.1628 38.2234 18.0291 38.9398 19.0442 39.3647C20.067 39.7404 21.1808 39.7917 22.2338 39.5118C23.2868 39.2318 24.228 38.6341 24.9291 37.8C25.5334 36.9815 25.972 36.0528 26.2204 35.0662C26.2638 34.917 26.3362 34.7778 26.4334 34.6566C26.5306 34.5354 26.6507 34.4345 26.7869 34.3597C26.9231 34.2849 27.0727 34.2376 27.2272 34.2206C27.3816 34.2036 27.5379 34.2172 27.6871 34.2606C27.8363 34.304 27.9755 34.3764 28.0967 34.4736C28.218 34.5708 28.3189 34.6909 28.3937 34.8271C28.4685 34.9633 28.5157 35.1129 28.5327 35.2674C28.5497 35.4218 28.5361 35.5781 28.4927 35.7273C28.1617 37.0088 27.5811 38.2124 26.7841 39.2691C26.066 40.1472 25.1607 40.8537 24.1344 41.337C23.1081 41.8202 21.9868 42.0679 20.8524 42.062Z" fill="white"/>
<path d="M9.18339 47.3477C7.35495 47.3477 6.09245 45.2562 5.66854 44.107C5.36765 43.3685 5.26873 42.5633 5.38193 41.774C5.49514 40.9847 5.81639 40.2397 6.3127 39.6156C6.73753 39.1038 7.28626 38.7093 7.90667 38.4696C8.52708 38.2299 9.19852 38.1529 9.85707 38.2461C11.6254 38.5361 12.6518 39.9587 13.4763 41.1013C13.6066 41.2817 13.7346 41.4584 13.8604 41.6248C14.7555 42.7641 15.9487 43.6332 17.3077 44.1357C18.6667 44.6382 20.1383 44.7544 21.5593 44.4715C24.5805 43.7978 26.0485 41.2197 26.3186 36.1118C26.3268 35.9566 26.3655 35.8045 26.4324 35.6643C26.4994 35.5241 26.5933 35.3984 26.7088 35.2945C26.9421 35.0845 27.2492 34.9759 27.5627 34.9924C27.7178 35.0006 27.8699 35.0393 28.0101 35.1062C28.1504 35.1732 28.276 35.2671 28.38 35.3826C28.4839 35.4982 28.5641 35.633 28.6159 35.7795C28.6677 35.926 28.6902 36.0813 28.682 36.2365C28.4732 40.1778 27.5615 45.558 22.0744 46.7814C20.2118 47.1704 18.2774 47.0277 16.4921 46.3695C14.7069 45.7113 13.1427 44.5642 11.9785 43.0592C11.8397 42.877 11.6999 42.6836 11.5575 42.4863C10.9285 41.6145 10.2784 40.7131 9.47411 40.5811C9.22172 40.5539 8.96653 40.5901 8.73165 40.6864C8.49678 40.7827 8.28963 40.9361 8.12897 41.1326C7.90263 41.4389 7.76121 41.7995 7.71903 42.178C7.67686 42.5565 7.73542 42.9394 7.8888 43.288C8.21715 44.1778 8.93215 44.9725 9.1904 44.981C9.50298 44.9529 9.8139 45.0501 10.0548 45.2513C10.2957 45.4525 10.4468 45.7411 10.4749 46.0537C10.5029 46.3663 10.4057 46.6772 10.2045 46.9181C10.0034 47.1589 9.71475 47.31 9.40217 47.3381C9.32765 47.3448 9.25423 47.3477 9.18339 47.3477Z" fill="white"/>
<path d="M26.1175 55.3854C25.6737 55.3841 25.2347 55.2942 24.8262 55.1208C23.2696 54.4704 22.085 52.6394 22.0097 50.7674C21.9556 49.9869 22.1342 49.208 22.5231 48.5291C22.912 47.8503 23.4936 47.3021 24.1942 46.9541C24.75 46.6838 25.3258 46.4566 25.9164 46.2745C27.1627 45.8558 27.9455 45.5481 28.3259 44.8083C29.3515 42.8072 27.9939 39.9214 26.8826 37.9251C26.8005 37.7891 26.7465 37.6379 26.7241 37.4807C26.7016 37.3234 26.711 37.1632 26.7518 37.0096C26.7926 36.856 26.8639 36.7122 26.9614 36.5868C27.059 36.4614 27.1808 36.3569 27.3196 36.2796C27.4584 36.2023 27.6114 36.1537 27.7694 36.1368C27.9274 36.1199 28.0872 36.135 28.2392 36.1812C28.3912 36.2273 28.5324 36.3037 28.6543 36.4056C28.7762 36.5075 28.8763 36.6329 28.9487 36.7744C30.4399 39.4543 31.9555 42.912 30.4299 45.8871C29.584 47.537 27.9673 48.0801 26.6668 48.5169C26.1907 48.6624 25.7258 48.8424 25.2759 49.0555C24.9769 49.1986 24.7294 49.4307 24.5674 49.7199C24.4054 50.0091 24.3368 50.3414 24.3709 50.6711C24.4078 51.6215 25.0214 52.6379 25.736 52.9364C26.002 53.047 26.4244 53.133 27.0191 52.5907C27.134 52.486 27.2683 52.405 27.4145 52.3523C27.5606 52.2996 27.7157 52.2761 27.871 52.2833C28.0262 52.2905 28.1784 52.3283 28.3191 52.3943C28.4597 52.4604 28.5859 52.5535 28.6906 52.6683C28.7952 52.7832 28.8763 52.9175 28.929 53.0637C28.9817 53.2098 29.0052 53.3649 28.9979 53.5201C28.9907 53.6754 28.953 53.8276 28.887 53.9683C28.8209 54.1089 28.7278 54.2351 28.6129 54.3398C27.9424 54.99 27.0512 55.3634 26.1175 55.3854Z" fill="white"/>
<path d="M41.3365 37.5355C40.7612 37.5362 40.1911 37.4272 39.6567 37.2141C39.1846 37.0358 38.7545 36.7616 38.3935 36.409C38.0325 36.0564 37.7484 35.6328 37.5589 35.1651C37.446 34.8747 37.453 34.5514 37.5784 34.2662C37.7039 33.981 37.9375 33.7573 38.2278 33.6443C38.5182 33.5314 38.8415 33.5384 39.1267 33.6638C39.4119 33.7892 39.6356 34.0228 39.7486 34.3132C39.8247 34.4797 39.9333 34.6292 40.0681 34.7531C40.2029 34.8769 40.361 34.9726 40.5333 35.0345C40.7941 35.1391 41.073 35.1911 41.354 35.1873C41.6349 35.1836 41.9124 35.1243 42.1703 35.0127C43.1162 34.5733 43.8416 33.4846 44.1109 32.1007C44.2928 30.839 44.3119 29.5591 44.1677 28.2925L44.1271 27.6709C43.9497 24.802 44.0404 21.1806 46.3374 18.6213C47.0783 17.8514 47.9104 17.1748 48.8152 16.6065C49.3308 16.2686 49.8278 15.9032 50.3042 15.5119C51.3015 14.7109 51.9985 13.5962 52.2821 12.349C52.4011 11.7931 52.3794 11.2162 52.2189 10.6708C52.0584 10.1254 51.7642 9.62878 51.363 9.22595C50.5676 8.50652 49.3608 8.25196 48.0832 7.98264L47.8917 7.94242C46.2042 7.58456 44.4887 7.06251 43.3697 5.67716C42.9933 5.19139 42.7337 4.6256 42.6108 4.02351C42.4879 3.42142 42.5051 2.79914 42.6609 2.20474C42.7747 1.74299 42.9975 1.31526 43.3107 0.957435C43.6239 0.59961 44.0184 0.322134 44.461 0.148288C44.7512 0.0449469 45.0703 0.0597074 45.3497 0.189389C45.6291 0.319071 45.8463 0.553295 45.9547 0.841619C46.0631 1.12994 46.0538 1.4493 45.929 1.73089C45.8042 2.01248 45.5738 2.23379 45.2874 2.34715C45.1934 2.39113 45.1115 2.45735 45.0488 2.54008C44.9862 2.62281 44.9446 2.71955 44.9277 2.82196C44.869 3.05754 44.8627 3.30313 44.9093 3.5414C44.9558 3.77968 45.054 4.00485 45.197 4.20105C45.8884 5.05698 47.2018 5.39455 48.3787 5.64395L48.5676 5.6838C50.0231 5.99075 51.6726 6.33866 52.9388 7.48347C53.6408 8.15393 54.1608 8.9919 54.4498 9.91861C54.7389 10.8453 54.7876 11.8303 54.5912 12.781C54.2094 14.5557 53.2361 16.1481 51.8309 17.2972C51.2906 17.744 50.7264 18.161 50.1408 18.5464C49.3933 19.0115 48.7034 19.5633 48.0854 20.1903C46.3713 22.1007 46.3226 25.1142 46.4717 27.5259L46.5115 28.1339C46.6737 29.6034 46.6419 31.0878 46.4171 32.549C46.0046 34.6703 44.7871 36.3859 43.1598 37.1433C42.5875 37.4045 41.9655 37.5383 41.3365 37.5355Z" fill="white"/>
<path d="M44.2956 41.8291C43.1688 41.8355 42.0549 41.5898 41.0353 41.11C40.0157 40.6302 39.1164 39.9285 38.403 39.0562C37.6116 38.0074 37.0349 36.8127 36.7059 35.5406C36.6189 35.2415 36.6543 34.92 36.8044 34.6469C36.9544 34.3739 37.2068 34.1716 37.5059 34.0846C37.8051 33.9977 38.1266 34.0331 38.3996 34.1831C38.6727 34.3331 38.875 34.5855 38.9619 34.8847C39.2082 35.8642 39.6438 36.7862 40.244 37.5986C40.9405 38.426 41.8749 39.019 42.9201 39.297C43.9654 39.5749 45.0709 39.5244 46.0865 39.1521C47.0941 38.7302 47.9541 38.0189 48.5576 37.1083C49.161 36.1977 49.481 35.1286 49.477 34.0361C49.4637 33.3182 49.4183 32.577 49.3704 31.793C49.2032 29.0658 49.014 25.9749 50.2886 23.3001C51.132 21.5292 53.0339 19.7738 55.37 19.8417C55.9232 19.85 56.4669 19.9864 56.9585 20.2403C57.45 20.4942 57.8761 20.8586 58.203 21.3049C59.3423 22.809 59.4596 25.0488 59.0704 26.601C58.7697 27.7996 58.4679 29.3071 58.8048 30.3372C58.8475 30.5261 58.9391 30.7004 59.0703 30.8429C59.2015 30.9853 59.3678 31.0908 59.5526 31.1488C59.8163 31.1903 60.0861 31.1672 60.3389 31.0813C60.5917 30.9954 60.8198 30.8495 61.0036 30.6559C61.5295 30.0982 61.9651 29.4619 62.2949 28.7699C62.3689 28.6346 62.4689 28.5152 62.589 28.4185C62.7092 28.3218 62.8472 28.2497 62.9952 28.2064C63.1432 28.163 63.2983 28.1492 63.4517 28.1658C63.605 28.1824 63.7536 28.229 63.8889 28.303C64.0242 28.3771 64.1436 28.477 64.2403 28.5971C64.337 28.7173 64.4091 28.8553 64.4525 29.0033C64.4958 29.1514 64.5096 29.3065 64.493 29.4598C64.4764 29.6131 64.4298 29.7617 64.3558 29.897C63.9107 30.8176 63.316 31.658 62.596 32.384C62.1255 32.8478 61.546 33.1859 60.9108 33.3672C60.2755 33.5486 59.6049 33.5674 58.9605 33.4218C58.3948 33.2652 57.8786 32.9666 57.4607 32.5545C57.0429 32.1424 56.7372 31.6303 56.5727 31.0669C56.0525 29.4753 56.3919 27.6273 56.7941 26.0295C57.0405 25.047 56.9627 23.5539 56.3329 22.7223C56.2171 22.5573 56.0632 22.4226 55.8841 22.3299C55.7051 22.2371 55.5063 22.189 55.3047 22.1896C54.0293 22.1671 52.911 23.2628 52.4122 24.3102C51.3984 26.4372 51.5607 29.0865 51.7179 31.6487C51.7655 32.4235 51.8142 33.2241 51.8286 33.9926C51.8457 35.5668 51.3886 37.1097 50.5165 38.4205C49.6445 39.7312 48.398 40.749 46.9394 41.3414C46.096 41.6664 45.1995 41.8318 44.2956 41.8291Z" fill="white"/>
<path d="M55.8806 47.0773C55.8091 47.0773 55.7371 47.074 55.6637 47.0673C55.3546 47.0378 55.0697 46.8871 54.8714 46.6481C54.6731 46.4091 54.5774 46.1013 54.6054 45.7921C54.6334 45.4828 54.7828 45.1972 55.0208 44.9977C55.2588 44.7982 55.5661 44.7011 55.8755 44.7275C56.13 44.719 56.8402 43.9295 57.1667 43.0467C57.3193 42.7007 57.3776 42.3205 57.3358 41.9446C57.2939 41.5688 57.1534 41.2108 56.9284 40.9068C56.7693 40.7111 56.5636 40.5584 56.3303 40.4627C56.0969 40.367 55.8432 40.3313 55.5925 40.359C54.7949 40.4903 54.1492 41.3846 53.5246 42.2498C53.3833 42.446 53.2446 42.6379 53.1066 42.819C51.9511 44.3133 50.3984 45.4522 48.6261 46.1056C46.8538 46.7589 44.9334 46.9003 43.0845 46.5135C37.6371 45.2994 36.7318 39.9583 36.5248 36.0461C36.5099 35.7359 36.6184 35.4324 36.8266 35.202C37.0349 34.9717 37.3259 34.8331 37.636 34.8167C37.9461 34.8002 38.2501 34.9072 38.4815 35.1143C38.7129 35.3214 38.8529 35.6117 38.8709 35.9218C39.1391 40.9928 40.596 43.5521 43.5954 44.2206C45.0061 44.5013 46.467 44.3858 47.816 43.887C49.1651 43.3882 50.3496 42.5255 51.2383 41.3946C51.3641 41.2296 51.4903 41.0544 51.6198 40.8755C52.4381 39.741 53.4571 38.3298 55.2121 38.0406C55.8659 37.9484 56.5325 38.0249 57.1484 38.2628C57.7643 38.5007 58.3092 38.892 58.7314 39.3997C59.2244 40.0191 59.5435 40.7587 59.6558 41.5423C59.7682 42.3259 59.6698 43.1253 59.3708 43.8583C58.9494 45.0005 57.6951 47.0769 55.8806 47.0773Z" fill="white"/>
<path d="M39.0672 55.0559C38.1393 55.0353 37.2534 54.665 36.5868 54.0192C36.3566 53.8094 36.2191 53.5167 36.2046 53.2056C36.1902 52.8945 36.2999 52.5903 36.5097 52.3601C36.7195 52.1298 37.0121 51.9924 37.3233 51.9779C37.6344 51.9635 37.9386 52.0732 38.1688 52.283C38.7591 52.8209 39.1793 52.7371 39.4427 52.6261C40.1515 52.3309 40.7591 51.3208 40.7971 50.3756C40.831 50.0483 40.7629 49.7185 40.6021 49.4315C40.4413 49.1444 40.1956 48.9141 39.8987 48.7722C39.4522 48.5603 38.9908 48.3814 38.5182 48.2369C37.2288 47.8034 35.6235 47.2643 34.7838 45.6266C33.2693 42.6711 34.7739 39.2392 36.2544 36.5792C36.3295 36.4444 36.4304 36.3258 36.5514 36.23C36.6723 36.1342 36.811 36.0632 36.9594 36.0209C37.1078 35.9787 37.263 35.9662 37.4163 35.984C37.5696 36.0018 37.7178 36.0496 37.8526 36.1247C37.9874 36.1998 38.1061 36.3007 38.2019 36.4217C38.2977 36.5426 38.3687 36.6813 38.4109 36.8297C38.4531 36.9781 38.4657 37.1333 38.4479 37.2866C38.4301 37.4399 38.3822 37.5881 38.3071 37.7229C37.2044 39.7045 35.8559 42.5693 36.8746 44.5563C37.2509 45.2905 38.0293 45.5956 39.2664 46.0114C39.8526 46.1923 40.4242 46.4177 40.976 46.6858C41.6716 47.0313 42.249 47.5755 42.6351 48.2494C43.0211 48.9234 43.1985 49.6967 43.1446 50.4715C43.0708 52.3306 41.8939 54.1479 40.3485 54.7939C39.9431 54.9657 39.5074 55.0547 39.0672 55.0559Z" fill="white"/>
<path d="M28.3898 34.9198C28.946 34.9198 29.397 34.4688 29.397 33.9126C29.397 33.3563 28.946 32.9054 28.3898 32.9054C27.8335 32.9054 27.3826 33.3563 27.3826 33.9126C27.3826 34.4688 27.8335 34.9198 28.3898 34.9198Z" fill="white"/>
<path d="M36.6981 35.0537C37.2544 35.0537 37.7053 34.6027 37.7053 34.0465C37.7053 33.4902 37.2544 33.0393 36.6981 33.0393C36.1419 33.0393 35.6909 33.4902 35.6909 34.0465C35.6909 34.6027 36.1419 35.0537 36.6981 35.0537Z" fill="white"/>
</g>
<defs>
<clipPath id="clip0_3_272">
<rect width="64" height="55.3853" fill="white" transform="translate(0.5)"/>
</clipPath>
</defs>
</svg>
